<svg width="20" height="20" viewBox="0 0 20 20" fill="none" xmlns="http://www.w3.org/2000/svg">
<path d="M7.5567 6.44003C8.41557 6.44003 9.12235 5.88534 9.12235 5.02647C9.12235 4.1676 8.41557 3.61292 7.5567 3.61292C6.69783 3.61292 6 4.1676 6 5.02647C6 5.88534 6.69783 6.44003 7.5567 6.44003Z" fill="#FF2C55"/>
<path d="M11.1438 11.1887L10.9201 5.15867C10.8843 4.3177 11.5374 3.63776 12.441 3.63776C13.3536 3.63776 14.0067 4.3177 13.9709 5.15867L13.7204 11.1887C13.6846 11.9133 13.1299 12.4143 12.441 12.4143C11.7253 12.4143 11.1706 11.8954 11.1438 11.1887Z" fill="#28334A"/>
<path d="M12.441 13.5953C11.5821 13.5953 10.8754 14.15 10.8754 15.0088C10.8754 15.8677 11.5821 16.4224 12.441 16.4224C13.2999 16.4224 13.9977 15.8677 13.9977 15.0088C13.9977 14.15 13.2999 13.5953 12.441 13.5953Z" fill="#FFCC02"/>
<path d="M8.85391 8.84665L9.07757 14.8766C9.11336 15.7176 8.46026 16.3976 7.55666 16.3976C6.64411 16.3976 5.99101 15.7176 6.02679 14.8766L6.2773 8.84665C6.31308 8.12198 6.86777 7.62097 7.55666 7.62097C8.27238 7.62097 8.82707 8.13987 8.85391 8.84665Z" fill="#28334A"/>
</svg>
