<?xml version="1.0" encoding="UTF-8"?>
<svg width="243px" height="64px" viewBox="0 0 243 64" version="1.1" xmlns="http://www.w3.org/2000/svg" xmlns:xlink="http://www.w3.org/1999/xlink">
    <title>download mac app store - solid</title>
    <g id="download-mac-app-store---solid" stroke="none" stroke-width="1" fill="none" fill-rule="evenodd">
        <g id="download-mac-app-store" transform="translate(1.25, 1.25)" fill-rule="nonzero">
            <path d="M228.430574,0 C232.67577,0 234.225721,0.4155029 235.780529,1.24702342 C237.277524,2.04762512 238.452375,3.22247559 239.252977,4.71947063 C240.084497,6.27427881 240.5,7.82423022 240.5,12.069426 L240.5,49.430574 C240.5,53.6757698 240.084497,55.2257212 239.252977,56.7805294 C238.452375,58.2775244 237.277524,59.4523749 235.780529,60.2529766 C234.225721,61.0844971 232.67577,61.5 228.430574,61.5 L12.069426,61.5 C7.82423022,61.5 6.27427881,61.0844971 4.71947063,60.2529766 C3.22247559,59.4523749 2.04762512,58.2775244 1.24702342,56.7805294 C0.4155029,55.2257212 0,53.6757698 0,49.430574 L0,12.069426 C0,7.82423022 0.4155029,6.27427881 1.24702342,4.71947063 C2.04762512,3.22247559 3.22247559,2.04762512 4.71947063,1.24702342 C6.27427881,0.4155029 7.82423022,0 12.069426,0 L228.430574,0 Z" id="Rectangle" stroke="#444444" stroke-width="1.5" fill="#444444"></path>
            <path d="M57.634,14.173 L54.774,14.173 L54.774,23 L57.634,23 C60.754,23 62.405,21.037 62.405,18.567 C62.405,16.11 60.754,14.173 57.634,14.173 Z M56.009,21.999 L56.009,15.174 L57.413,15.174 C59.948,15.174 61.105,16.539 61.105,18.567 C61.105,20.608 59.948,21.999 57.413,21.999 L56.009,21.999 Z M67.046,23.169 C68.996,23.169 70.348,21.713 70.348,19.88 C70.348,18.06 68.996,16.591 67.046,16.591 C65.083,16.591 63.744,18.06 63.744,19.88 C63.744,21.713 65.083,23.169 67.046,23.169 Z M64.979,19.88 C64.979,18.606 65.824,17.618 67.046,17.618 C68.255,17.618 69.113,18.606 69.113,19.88 C69.113,21.154 68.255,22.142 67.046,22.142 C65.824,22.142 64.979,21.154 64.979,19.88 Z M80.774,16.76 L79.513,16.76 L77.901,21.453 L76.458,16.76 L75.444,16.76 L73.988,21.453 L72.389,16.76 L71.115,16.76 L73.494,23 L74.469,23 L75.951,18.138 L77.407,23 L78.408,23 L80.774,16.76 Z M85.129,16.591 C84.245,16.591 83.582,16.968 83.205,17.501 L83.062,16.76 L82.022,16.76 L82.022,23 L83.205,23 L83.205,19.126 C83.322,17.995 84.089,17.618 84.843,17.618 C85.844,17.618 86.286,18.359 86.286,19.399 L86.286,23 L87.482,23 L87.482,19.165 C87.482,17.202 86.234,16.591 85.129,16.591 Z M89.341,13.614 L89.341,23 L90.537,23 L90.537,13.614 L89.341,13.614 Z M95.438,23.169 C97.388,23.169 98.74,21.713 98.74,19.88 C98.74,18.06 97.388,16.591 95.438,16.591 C93.475,16.591 92.136,18.06 92.136,19.88 C92.136,21.713 93.475,23.169 95.438,23.169 Z M93.371,19.88 C93.371,18.606 94.216,17.618 95.438,17.618 C96.647,17.618 97.505,18.606 97.505,19.88 C97.505,21.154 96.647,22.142 95.438,22.142 C94.216,22.142 93.371,21.154 93.371,19.88 Z M102.263,23.13 C103.147,23.13 103.992,22.792 104.421,22.181 L104.603,23 L105.604,23 L105.604,19.23 C105.604,17.462 104.707,16.591 102.9,16.591 C101.99,16.591 101.236,16.812 100.664,17.306 L101.197,18.138 C101.613,17.787 102.146,17.605 102.77,17.605 C103.81,17.605 104.421,18.086 104.421,18.957 L104.421,19.503 L104.265,19.451 C101.509,18.372 100.027,19.815 100.027,21.141 C100.027,22.311 101.015,23.13 102.263,23.13 Z M101.275,21.05 C101.275,20.322 102.133,19.516 104.226,20.27 L104.421,20.335 L104.421,20.517 C104.421,21.609 103.537,22.181 102.575,22.181 C101.73,22.181 101.275,21.674 101.275,21.05 Z M113.3,13.614 L112.117,13.614 L112.117,17.566 C111.636,16.955 110.921,16.591 109.998,16.591 C108.373,16.591 107.086,17.852 107.086,19.88 C107.086,21.895 108.373,23.143 109.998,23.143 C110.947,23.143 111.688,22.74 112.169,22.103 L112.325,23 L113.3,23 L113.3,13.614 Z M108.295,19.88 C108.295,18.593 109.075,17.605 110.271,17.605 C111.493,17.605 112.286,18.593 112.286,19.88 C112.286,21.154 111.493,22.129 110.271,22.129 C109.075,22.129 108.295,21.154 108.295,19.88 Z M121.581,23.169 C123.531,23.169 124.883,21.713 124.883,19.88 C124.883,18.06 123.531,16.591 121.581,16.591 C119.618,16.591 118.279,18.06 118.279,19.88 C118.279,21.713 119.618,23.169 121.581,23.169 Z M119.514,19.88 C119.514,18.606 120.359,17.618 121.581,17.618 C122.79,17.618 123.648,18.606 123.648,19.88 C123.648,21.154 122.79,22.142 121.581,22.142 C120.359,22.142 119.514,21.154 119.514,19.88 Z M129.537,16.591 C128.653,16.591 127.99,16.968 127.613,17.501 L127.47,16.76 L126.43,16.76 L126.43,23 L127.613,23 L127.613,19.126 C127.73,17.995 128.497,17.618 129.251,17.618 C130.252,17.618 130.694,18.359 130.694,19.399 L130.694,23 L131.89,23 L131.89,19.165 C131.89,17.202 130.642,16.591 129.537,16.591 Z M138.936,20.673 L138.936,17.748 L140.457,17.748 L140.457,16.76 L138.936,16.76 L138.936,14.979 L137.753,14.979 L137.753,16.76 L136.791,16.76 L136.791,17.748 L137.753,17.748 L137.753,20.673 C137.753,22.935 139.261,23.195 140.457,23 L140.457,22.025 C139.261,22.194 138.936,21.648 138.936,20.673 Z M145.007,16.591 C144.123,16.591 143.46,16.968 143.07,17.527 L143.07,13.614 L141.887,13.614 L141.887,23 L143.07,23 L143.07,19.412 C143.07,18.06 143.915,17.618 144.721,17.618 C145.722,17.618 146.164,18.359 146.164,19.399 L146.164,23 L147.36,23 L147.36,19.165 C147.36,17.202 146.112,16.591 145.007,16.591 Z M150.09,20.114 L155.03,20.114 L155.03,19.711 C155.03,17.904 153.808,16.591 152.014,16.591 C150.168,16.591 148.855,18.06 148.855,19.88 C148.855,21.7 150.142,23.156 152.144,23.156 C153.223,23.156 154.133,22.766 154.705,22.129 L153.86,21.44 C153.444,21.921 152.885,22.155 152.144,22.155 C150.922,22.155 150.181,21.284 150.09,20.114 Z M150.168,19.256 C150.363,18.281 151.039,17.592 152.014,17.592 C153.028,17.592 153.704,18.216 153.847,19.256 L150.168,19.256 Z" id="Combined-Shape" fill="#FFFFFF"></path>
            <path d="M63.3699451,41.0230185 L58.1151741,28.098405 L54.452758,28.098405 L54.452758,45.0835233 L57.6905462,45.0835233 L57.6905462,33.9105002 L62.3083752,45.0835233 L64.431515,45.0835233 L69.0493441,33.9105002 L69.0493441,45.0835233 L72.2871323,45.0835233 L72.2871323,28.098405 L68.6247162,28.098405 L63.3699451,41.0230185 Z M79.5058329,45.3223766 C81.1778055,45.3223766 82.7436211,44.7385131 83.5663378,43.5707862 L83.9909657,45.0835233 L86.697969,45.0835233 L86.697969,37.9444658 C86.697969,34.3882066 84.8136824,32.5835378 81.0981878,32.5835378 C79.2669797,32.5835378 77.7011641,33.0612442 76.5068979,33.9901179 L77.8073211,36.0867184 C78.6300377,35.396698 79.6385291,35.0516878 80.7797168,35.0516878 C82.5578464,35.0516878 83.5663378,35.9009437 83.5663378,37.4402201 L83.5663378,38.289476 L83.1947883,38.1567798 C78.0727135,36.4051894 75.2330141,38.8733394 75.2330141,41.5538034 C75.2330141,43.8361787 77.1173006,45.3223766 79.5058329,45.3223766 Z M80.6204813,43.0930798 C79.3200582,43.0930798 78.5238808,42.3234416 78.5238808,41.288411 C78.5238808,39.9879878 80.0100786,38.8202609 83.2478668,39.9614486 L83.5663378,40.0676056 L83.5663378,40.3860765 C83.5663378,42.1111276 82.1862969,43.0930798 80.6204813,43.0930798 Z M95.6151723,45.4550728 C97.3933019,45.4550728 98.7468035,44.9508271 99.9145304,44.1015712 L98.1629401,41.7926567 C97.5259982,42.4030594 96.650203,42.7480696 95.7478686,42.7480696 C93.6247288,42.7480696 92.3508449,41.182254 92.3508449,39.0325749 C92.3508449,36.8563566 93.6247288,35.290541 95.7478686,35.290541 C96.650203,35.290541 97.5259982,35.6355512 98.1629401,36.2459539 L99.9410697,33.9370394 C98.7468035,33.0877835 97.4198412,32.5835378 95.6151723,32.5835378 C91.8465992,32.5835378 89.139596,35.3701588 89.139596,39.0325749 C89.139596,42.6684518 91.8465992,45.4550728 95.6151723,45.4550728 Z M124.065267,45.0835233 L117.350837,28.098405 L113.953814,28.098405 L107.239384,45.0835233 L110.848722,45.0835233 L112.228763,41.182254 L119.075888,41.182254 L120.455929,45.0835233 L124.065267,45.0835233 Z M115.652326,31.6015856 L118.147015,38.6344862 L113.157636,38.6344862 L115.652326,31.6015856 Z M133.88481,32.5835378 C132.10668,32.5835378 130.779718,33.2735582 129.877384,34.3616674 L129.611991,32.9020087 L126.851909,32.9020087 L126.851909,50.6567653 L130.01008,50.6567653 L130.01008,43.756561 C130.912414,44.7119739 132.212837,45.3489158 133.88481,45.3489158 C137.04298,45.3489158 139.53767,42.9869228 139.53767,38.9794964 C139.53767,34.9720701 137.04298,32.5835378 133.88481,32.5835378 Z M133.035554,42.6949911 C131.045111,42.6949911 129.691609,41.1557147 129.691609,38.9794964 C129.691609,36.8032781 131.045111,35.2374625 133.035554,35.2374625 C134.999458,35.2374625 136.326421,36.8032781 136.326421,38.9794964 C136.326421,41.1557147 134.999458,42.6949911 133.035554,42.6949911 Z M149.118356,32.5835378 C147.340226,32.5835378 146.013264,33.2735582 145.110929,34.3616674 L144.845537,32.9020087 L142.085455,32.9020087 L142.085455,50.6567653 L145.243625,50.6567653 L145.243625,43.756561 C146.14596,44.7119739 147.446383,45.3489158 149.118356,45.3489158 C152.276526,45.3489158 154.771215,42.9869228 154.771215,38.9794964 C154.771215,34.9720701 152.276526,32.5835378 149.118356,32.5835378 Z M148.2691,42.6949911 C146.278656,42.6949911 144.925155,41.1557147 144.925155,38.9794964 C144.925155,36.8032781 146.278656,35.2374625 148.2691,35.2374625 C150.233004,35.2374625 151.559966,36.8032781 151.559966,38.9794964 C151.559966,41.1557147 150.233004,42.6949911 148.2691,42.6949911 Z M169.500523,45.4550728 C172.234065,45.4550728 175.365696,43.9954142 175.365696,40.3064588 C175.365696,37.652534 173.454871,36.2459539 170.800946,35.2640018 C168.54511,34.4678244 167.350844,33.7247254 167.350844,32.4773808 C167.350844,31.2831147 168.465492,30.460398 169.818994,30.460398 C171.039799,30.460398 171.995212,30.9115652 173.083321,31.9200566 L175.126843,29.7172991 C173.799881,28.5495722 172.127908,27.673777 169.712837,27.673777 C166.713902,27.673777 163.927281,29.7172991 163.927281,32.6631555 C163.927281,35.6620905 166.342352,36.8032781 168.89012,37.7056125 C170.588632,38.3160152 171.835977,38.9794964 171.835977,40.4922335 C171.835977,41.9518921 170.402857,42.6419126 169.128973,42.6419126 C167.669315,42.6419126 166.368892,42.1111276 165.148086,40.5983905 L162.998407,42.8542266 C164.67038,44.6323561 166.76698,45.4550728 169.500523,45.4550728 Z M185.795638,32.9020087 L182.796703,32.9020087 L182.796703,29.3988281 L179.665072,29.3988281 L179.665072,32.9020087 L177.807324,32.9020087 L177.807324,35.3436195 L179.665072,35.3436195 L179.665072,40.2799196 C179.665072,44.7385131 182.664006,45.6673868 185.795638,45.0835233 L185.795638,42.6684518 C183.645959,43.013462 182.796703,42.1376669 182.796703,40.1737626 L182.796703,35.3436195 L185.795638,35.3436195 L185.795638,32.9020087 Z M194.128973,45.4550728 C198.056781,45.4550728 200.763784,42.6684518 200.763784,39.0325749 C200.763784,35.3701588 198.056781,32.5835378 194.128973,32.5835378 C190.201164,32.5835378 187.494161,35.3701588 187.494161,39.0325749 C187.494161,42.6684518 190.201164,45.4550728 194.128973,45.4550728 Z M194.128973,42.7746088 C192.138529,42.7746088 190.731949,41.182254 190.731949,39.0325749 C190.731949,36.8563566 192.138529,35.2640018 194.128973,35.2640018 C196.119416,35.2640018 197.525996,36.8563566 197.525996,39.0325749 C197.525996,41.182254 196.119416,42.7746088 194.128973,42.7746088 Z M209.680989,32.5835378 C208.24787,32.5835378 207.133221,33.5654899 206.443201,34.6005206 L206.071651,32.9020087 L203.31157,32.9020087 L203.31157,45.0835233 L206.46974,45.0835233 L206.46974,39.0591142 C206.46974,36.9094351 207.557849,35.609012 209.415597,35.609012 C209.840225,35.609012 210.238313,35.6886297 210.556784,35.7947867 L211.034491,32.7693125 C210.662941,32.6631555 210.264853,32.5835378 209.680989,32.5835378 Z M224.4899,38.8998787 C224.4899,35.078227 221.942132,32.5835378 218.332794,32.5835378 C214.590761,32.5835378 211.910297,35.3701588 211.910297,39.0325749 C211.910297,42.6684518 214.564221,45.4285336 218.704344,45.4285336 C220.880562,45.4285336 222.552535,44.7119739 223.720262,43.544247 L221.597122,41.8191959 C220.854023,42.6153733 219.925149,43.0400013 218.651265,43.0400013 C216.634283,43.0400013 215.440017,41.7395782 215.201163,39.7756739 L224.4899,39.7756739 L224.4899,38.8998787 Z M218.332794,34.9720701 C220.084385,34.9720701 221.145955,36.0601792 221.384808,37.758691 L215.280781,37.758691 C215.625791,36.0867184 216.687361,34.9720701 218.332794,34.9720701 Z" id="Combined-Shape" fill="#FFFFFF"></path>
            <path d="M38.8556128,29.9265033 C38.8934366,27.0439976 40.4324531,24.3814402 42.9334656,22.8716618 C41.3485221,20.6490348 38.7890173,19.290363 36.0270681,19.205512 C33.1212622,18.9060125 30.3042327,20.9128395 28.8234571,20.9128395 C27.3140602,20.9128395 25.0342313,19.2352496 22.5792128,19.2848394 C19.3490683,19.3873115 16.4106986,21.1468958 14.8391666,23.9198124 C11.4926076,29.6091611 13.9888443,37.9706247 17.1946259,42.5695041 C18.7985567,44.8214372 20.6730764,47.3368908 23.1258817,47.2476945 C25.526087,47.1499364 26.4225197,45.7448535 29.3197559,45.7448535 C32.1901178,45.7448535 33.031138,47.2476945 35.5337147,47.1909808 C38.1092595,47.1499364 39.7319439,44.9290479 41.2796304,42.655792 C42.4320531,41.0512118 43.31884,39.2778005 43.9071429,37.4012488 C40.8481844,36.1308662 38.8591727,33.1877271 38.8556128,29.9265033 Z M34.1287527,16.1809909 C35.5330507,14.5256962 36.2248982,12.3980888 36.0573702,10.25 C33.9119347,10.4712587 31.9301529,11.478086 30.5068956,13.0698713 C29.1014925,14.6403833 28.3895193,16.6950345 28.5277913,18.7812782 C30.7019843,18.8032534 32.7663336,17.8448643 34.1287527,16.1809909 Z" id="Combined-Shape" fill="#FFFFFF"></path>
        </g>
    </g>
</svg>