<svg width="23" height="19" viewBox="0 0 23 19" fill="none" xmlns="http://www.w3.org/2000/svg">
<path d="M5.57227 18.9531C4.55013 18.9531 3.7819 18.6992 3.26758 18.1914C2.75977 17.6901 2.50586 16.9349 2.50586 15.9258V4.00195C2.50586 2.99284 2.75977 2.23763 3.26758 1.73633C3.7819 1.22852 4.55013 0.974609 5.57227 0.974609H17.418C18.4401 0.974609 19.2051 1.22852 19.7129 1.73633C20.2272 2.23763 20.4844 2.99284 20.4844 4.00195V15.9258C20.4844 16.9349 20.2272 17.6901 19.7129 18.1914C19.2051 18.6992 18.4401 18.9531 17.418 18.9531H5.57227ZM5.5918 17.3809H17.3984C17.8802 17.3809 18.2513 17.2539 18.5117 17C18.7786 16.7396 18.9121 16.3555 18.9121 15.8477V4.08008C18.9121 3.57227 18.7786 3.19141 18.5117 2.9375C18.2513 2.67708 17.8802 2.54688 17.3984 2.54688H5.5918C5.10352 2.54688 4.72917 2.67708 4.46875 2.9375C4.20833 3.19141 4.07812 3.57227 4.07812 4.08008V15.8477C4.07812 16.3555 4.20833 16.7396 4.46875 17C4.72917 17.2539 5.10352 17.3809 5.5918 17.3809Z" fill="#888888" fill-opacity="0.5"/>
</svg>
