<?xml version="1.0" encoding="UTF-8"?>
<svg width="18px" height="18px" viewBox="0 0 18 18" version="1.1" xmlns="http://www.w3.org/2000/svg" xmlns:xlink="http://www.w3.org/1999/xlink">
    <title>pricing checkbox partial</title>
    <g id="Page-1" stroke="none" stroke-width="1" fill="none" fill-rule="evenodd">
        <g id="Group-52" fill="#888888">
            <path d="M12.5004663,2.22187744e-16 C14.412774,-1.29097478e-16 15.1062229,0.199110934 15.8053341,0.572999645 C16.5044452,0.946888355 17.0531116,1.49555484 17.4270004,2.19466595 C17.8008891,2.89377705 18,3.58722603 18,5.4995337 L18,12.5004663 C18,14.412774 17.8008891,15.1062229 17.4270004,15.8053341 C17.0531116,16.5044452 16.5044452,17.0531116 15.8053341,17.4270004 C15.1062229,17.8008891 14.412774,18 12.5004663,18 L5.4995337,18 C3.58722603,18 2.89377705,17.8008891 2.19466595,17.4270004 C1.49555484,17.0531116 0.946888355,16.5044452 0.572999645,15.8053341 C0.199110934,15.1062229 8.60649852e-17,14.412774 -1.48125163e-16,12.5004663 L1.48125163e-16,5.4995337 C-8.60649852e-17,3.58722603 0.199110934,2.89377705 0.572999645,2.19466595 C0.946888355,1.49555484 1.49555484,0.946888355 2.19466595,0.572999645 C2.89377705,0.199110934 3.58722603,1.29097478e-16 5.4995337,-2.22187744e-16 L12.5004663,2.22187744e-16 Z M5.49966107,1.5 C4.10889178,1.5 3.60456523,1.64480796 3.09612077,1.91672703 C2.5876763,2.18864611 2.18864611,2.5876763 1.91672703,3.09612077 C1.64480796,3.60456523 1.5,4.10889178 1.5,5.49966107 L1.5,12.5003389 C1.5,13.8911082 1.64480796,14.3954348 1.91672703,14.9038792 C2.18864611,15.4123237 2.5876763,15.8113539 3.09612077,16.083273 C3.60456523,16.355192 4.10889178,16.5 5.49966107,16.5 L12.5003389,16.5 C13.8911082,16.5 14.3954348,16.355192 14.9038792,16.083273 C15.4123237,15.8113539 15.8113539,15.4123237 16.083273,14.9038792 C16.355192,14.3954348 16.5,13.8911082 16.5,12.5003389 L16.5,5.49966107 C16.5,4.10889178 16.355192,3.60456523 16.083273,3.09612077 C15.8113539,2.5876763 15.4123237,2.18864611 14.9038792,1.91672703 C14.3954348,1.64480796 13.8911082,1.5 12.5003389,1.5 Z" id="Shape" fill-rule="nonzero" opacity="0.300000012"></path>
            <path d="M5.5,8 L12.5,8 C13.0522847,8 13.5,8.44771525 13.5,9 C13.5,9.55228475 13.0522847,10 12.5,10 L5.5,10 C4.94771525,10 4.5,9.55228475 4.5,9 C4.5,8.44771525 4.94771525,8 5.5,8 Z" id="Rectangle" opacity="0.5"></path>
        </g>
    </g>
</svg>