<?xml version="1.0" encoding="UTF-8"?>
<svg width="863.258623px" height="175.384073px" viewBox="0 0 863.258623 175.384073" version="1.1" xmlns="http://www.w3.org/2000/svg" xmlns:xlink="http://www.w3.org/1999/xlink">
    <title>seabed bg</title>
    <g id="Final" stroke="none" stroke-width="1" fill="none" fill-rule="evenodd" opacity="0.5">
        <g id="Home---Desktop" transform="translate(-155.5727, -10579.6159)">
            <g id="Group-18" transform="translate(101.4126, 10288.9861)">
                <g id="seabed-bg" transform="translate(54.8945, 291.3799)">
                    <g id="Group-25">
                        <path d="M136.127532,134.2051 C137.701532,134.9111 139.349532,135.9211 139.831532,137.5781 C140.385532,139.4831 139.219532,141.7231 140.224532,143.4331 C141.105532,144.9331 143.128532,145.1651 144.683532,145.9441 C146.699532,146.9541 148.019532,149.0251 148.639532,151.1931 C149.258532,153.3621 149.268532,155.6521 149.273566,157.9071 C149.274532,158.3231 149.255532,158.7881 148.954532,159.0751 C148.601532,159.4111 148.036532,159.3411 147.567532,159.2111 C145.002532,158.4981 142.906532,156.7051 140.704532,155.2081 C132.779532,149.8161 123.037532,148.0401 113.776532,145.5641 C112.684532,145.2721 111.494532,144.8961 110.896532,143.9371 C110.171532,142.7761 110.612532,141.2521 111.220532,140.0261 C116.137532,130.1191 127.015532,130.1171 136.127532,134.2051" id="Fill-1" fill="#EDEEF0" fill-rule="nonzero"></path>
                        <path d="M72.5150323,166.8926 C69.4320323,162.2546 66.3500323,157.6176 63.2670323,152.9796 C57.0940323,143.6926 40.6300323,132.1416 28.7060323,146.0496 C26.2690323,148.8916 23.6450323,151.7726 20.1790323,153.1886 C17.9020323,154.1196 15.4050323,154.3526 13.0500323,155.0646 C6.56903229,157.0236 1.44203229,162.8876 0.366032289,169.5726 C-0.268967711,170.1516 -0.0179677115,171.5306 0.661032289,172.0586 C1.33903229,172.5866 2.24903229,172.6766 3.10603229,172.7446 C22.8950323,174.3076 42.8780323,174.9396 62.5340323,172.1666 C66.4330323,171.6166 70.6180323,170.3426 72.5150323,166.8926" id="Fill-3" fill="#EDEEF0" fill-rule="nonzero"></path>
                        <path d="M40.2789323,76.3616 C39.8999323,78.2156 39.4449323,80.0916 38.4659323,81.7106 C35.7639323,86.1856 28.5959323,94.0526 28.2559323,99.3206 C28.1199323,101.4336 29.9469323,103.9136 32.0269323,103.5176 C33.6339323,103.2116 34.3829323,101.3796 34.7969323,99.7966 C36.0139323,95.1456 36.7309323,90.3376 38.5459323,85.8856 C40.0509323,82.1926 42.2859323,78.8136 43.5799323,75.0406 C44.1379323,73.4156 46.0359323,65.5316 42.7459323,65.4424361 C41.0899323,65.3976 40.6319323,74.6346 40.2789323,76.3616" id="Fill-4" fill="#EDEEF0" fill-rule="nonzero"></path>
                        <path d="M86.4094323,127.6753 C85.2924323,124.2273 85.7464323,120.4783 86.4424323,116.9213 C88.1824323,108.0263 91.3704323,99.4153 95.8434323,91.5313 C96.5404323,90.3033 97.8054323,88.9023 99.0914323,89.4843 C99.6034323,89.7163 99.9344323,90.2163 100.217432,90.7013 C102.197432,94.0993 103.175432,97.9523 103.622432,101.8343 C103.975432,104.9003 104.802432,109.6393 103.789432,112.6163 C102.821432,115.4603 98.5974323,117.6773 96.3674323,119.5063 C95.3984323,120.3013 86.1824323,126.9733 86.4094323,127.6753" id="Fill-5" fill="#EDEEF0" fill-rule="nonzero"></path>
                        <path d="M129.604532,104.402 C129.704532,104.389 135.232532,102.356 135.139532,100.646 C135.027532,98.568 132.127532,94.287 131.345532,92.359 C129.440532,87.657 127.534532,82.954 125.629532,78.252 C124.901532,76.457 124.163532,74.611 124.129532,72.674 C124.094532,70.685 124.805532,68.764 125.569532,66.927 C128.009532,61.064 131.174532,55.022 130.290532,48.734 C128.899532,48.286 127.341532,48.89 126.271532,49.886 C125.201532,50.883 124.521532,52.217 123.863532,53.522 C121.744532,57.723 119.625532,61.924 117.506532,66.125 C116.186532,68.741 114.485532,69.841 114.502406,71.403 C114.516532,72.742 116.031532,74.539 117.444532,76.587 C129.717532,94.385 125.501532,104.936 129.604532,104.402" id="Fill-6" fill="#EDEEF0" fill-rule="nonzero"></path>
                        <path d="M0.0157322885,172.1213 C1.09173229,165.4373 6.21873229,159.5723 12.6997323,157.6143 C15.0547323,156.9023 17.5517323,156.6683 19.8287323,155.7383 C23.2947323,154.3223 25.9187323,151.4403 28.3557323,148.5983 C30.5287323,146.0643 32.7987323,143.3833 35.9307323,142.2283 C40.5747323,140.5153 45.6727323,142.6103 50.1737323,144.6723 C52.7967323,145.8733 55.4587323,147.0993 57.6467323,148.9813 C59.7777323,150.8153 61.3607323,153.1873 62.9177323,155.5293 C65.9997323,160.1663 69.0827323,164.8043 72.1647323,169.4413" id="Stroke-7" stroke="#B4BDC5" stroke-width="1.5" stroke-linecap="round" stroke-linejoin="round"></path>
                        <path d="M55.8088323,2.3958 C48.6668323,4.5588 43.4588323,11.1398 41.4178323,18.3178 C39.3768323,25.4948 40.1048323,33.1908 41.7908323,40.4598 C43.6308323,48.3878 46.6068323,56.2458 46.1918323,64.3738 C45.5428323,77.0928 36.7408323,88.1068 34.9858323,100.7208 C33.2418323,113.2498 39.2898323,126.5358 49.8838323,133.4488" id="Stroke-8" stroke="#B4BDC5" stroke-width="1.5" stroke-linecap="round" stroke-linejoin="round"></path>
                        <path d="M72.4734323,142.0137 C69.8324323,136.8067 67.1914323,131.5997 64.5504323,126.3927 C46.9004323,91.5927 75.8264323,82.3267 74.3344323,55.7447 C73.3254323,37.7627 51.9834323,20.6987 55.8084323,2.3957" id="Stroke-9" stroke="#B4BDC5" stroke-width="1.5" stroke-linecap="round" stroke-linejoin="round"></path>
                        <path d="M51.3729323,32.2293 C54.0149323,46.6223 56.6529323,61.4733 53.5349323,75.7713 C50.7969323,88.3303 43.6619323,100.4093 45.3969323,113.1463 C46.8009323,123.4583 54.0269323,132.2713 62.7669323,137.9213" id="Stroke-10" stroke="#EDEEF0" stroke-width="1.5" stroke-linecap="round" stroke-linejoin="round"></path>
                        <path d="M79.8491323,56.369 C87.4091323,53.069 91.9771323,45.246 94.6611323,37.446 C97.3461323,29.647 98.6951323,21.347 102.406132,13.98 C106.118132,6.613 113.055132,0.049 121.304132,0 C119.716132,0.749 118.505132,2.837 117.977132,4.511 C111.527132,24.936 136.620132,39.982 118.982132,64.635 C113.552132,72.226 106.581132,78.558 100.348132,85.506 C84.2321323,103.466 83.0261323,124.903 88.5831323,137.922" id="Stroke-11" stroke="#B4BDC5" stroke-width="1.5" stroke-linecap="round" stroke-linejoin="round"></path>
                        <path d="M147.166632,43.6714 C140.298632,48.5694 137.352632,57.1924 134.988632,65.2894 C132.623632,73.3864 130.125632,82.0394 123.712632,87.5194" id="Stroke-12" stroke="#EDEEF0" stroke-width="1.5" stroke-linecap="round" stroke-linejoin="round"></path>
                        <path d="M107.174632,28.4398 C108.764632,32.5648 108.055632,37.2348 106.632632,41.4198 C99.8686323,61.3308 78.6336323,73.7908 72.3666323,93.8628 C68.0796323,107.5918 66.9156323,121.5898 79.8486323,142.7168" id="Stroke-13" stroke="#EDEEF0" stroke-width="1.5" stroke-linecap="round" stroke-linejoin="round"></path>
                        <path d="M101.538132,93.1138 C105.914132,105.0918 107.727132,118.9248 101.926132,130.2818 C99.8271323,134.3928 97.1891323,139.4818 94.2231323,143.0188" id="Stroke-14" stroke="#B4BDC5" stroke-width="1.5" stroke-linecap="round" stroke-linejoin="round"></path>
                        <path d="M91.8364323,32.2314 C88.7034323,24.3884 86.3884323,15.7644 85.5404323,6.0464 C81.5574323,19.1964 80.8574323,33.3144 83.4164323,46.8094" id="Stroke-15" stroke="#B4BDC5" stroke-width="1.5" stroke-linecap="round" stroke-linejoin="round"></path>
                        <path d="M108.080432,144.3798 C114.754432,137.8798 120.899432,129.7078 124.354432,121.0558 C131.605432,102.9008 125.589432,88.8368 116.285432,74.0058" id="Stroke-16" stroke="#B4BDC5" stroke-width="1.5" stroke-linecap="round" stroke-linejoin="round"></path>
                        <path d="M89.1926323,44.2499 C88.7516323,40.0079 86.9966323,33.2199 86.8736323,32.2289" id="Stroke-17" stroke="#EDEEF0" stroke-width="1.5" stroke-linecap="round" stroke-linejoin="round"></path>
                        <path d="M112.480632,118.368 C116.581632,110.844 117.216632,101.698 115.101632,93.394 C113.971632,88.956 112.587632,85.206 111.048632,81.936" id="Stroke-18" stroke="#EDEEF0" stroke-width="1.5" stroke-linecap="round" stroke-linejoin="round"></path>
                        <path d="M132.931632,102.3166 C137.330632,99.0956 141.575632,95.4886 144.487632,90.8786 C154.210632,75.4826 146.648632,53.6896 156.123632,38.1396 C145.855632,38.8466 136.804632,42.0736 129.378632,49.1986" id="Stroke-19" stroke="#B4BDC5" stroke-width="1.5" stroke-linecap="round" stroke-linejoin="round"></path>
                        <path d="M30.8346323,103.0065 C8.11063229,84.3955 33.6046323,68.0565 8.61063229,32.5085 C16.9496323,34.0945 39.2286323,51.2905 43.4266323,64.4235" id="Stroke-20" stroke="#B4BDC5" stroke-width="1.5" stroke-linecap="round" stroke-linejoin="round"></path>
                        <path d="M23.3357323,49.247 C30.9937323,59.882 34.6017323,73.362 33.2797323,86.401" id="Stroke-21" stroke="#EDEEF0" stroke-width="1.5" stroke-linecap="round" stroke-linejoin="round"></path>
                        <path d="M35.8064323,149.0993 C36.9474323,149.3873 38.0884323,149.6743 39.2294323,149.9623 C40.0374323,150.1653 40.8904323,150.3953 41.4614323,151.0013 C41.9464323,151.5163 42.1524323,152.2273 42.3254323,152.9133 C42.8794323,155.1003 43.2664323,157.3263 43.8394323,159.5083 C44.2774323,161.1753 44.8494323,162.8613 45.9684323,164.1723 C47.9754323,166.5223 51.6584323,167.6403 52.3504323,170.6513" id="Stroke-22" stroke="#B4BDC5" stroke-width="1.5" stroke-linecap="round" stroke-linejoin="round"></path>
                        <path d="M57.2784323,143.4988 C73.6844323,142.7298 90.1974323,141.9648 106.475432,144.1518 C119.659432,145.9228 132.794432,149.7548 144.126432,156.5978 C148.837432,159.4428 153.992432,161.4318 159.354432,162.6728 C160.922432,163.0358 162.376432,163.5158 163.446432,164.0908 C166.211432,165.5758 168.088432,168.5078 171.039432,169.5718" id="Stroke-23" stroke="#B4BDC5" stroke-width="1.5" stroke-linecap="round" stroke-linejoin="round"></path>
                        <path d="M125.946932,131.986 C130.883932,131.673 134.705932,133.06 135.496932,133.88 C140.094932,138.649 135.080932,141.973 142.924932,145.01 C145.402932,145.97 147.971932,147.398 149.346932,150.287 C150.721932,153.176 151.202932,156.621 151.302932,159.996" id="Stroke-24" stroke="#B4BDC5" stroke-width="1.5" stroke-linecap="round" stroke-linejoin="round"></path>
                    </g>
                    <g id="Group-13" transform="translate(769.1383, 94.3205)">
                        <path d="M37.3854784,51.6761445 C28.3284784,52.3311445 10.9654784,53.6651445 17.0424784,58.3191445 C23.7984784,63.4931445 48.7594784,62.7011445 59.0354784,61.8981445 C64.2964784,61.4871445 69.6574784,60.7091445 74.3204784,58.2401445 C74.9684784,57.8971445 75.6814784,57.3911445 75.6834841,56.6581445 C75.6864784,55.6781445 74.4894784,55.2221445 73.5274784,55.0371445 C67.6864784,53.9101445 61.8274784,52.8711445 55.9544784,51.9201445 C55.4464784,51.8381445 54.9394784,51.7571445 54.4314784,51.6761445 C50.9434784,51.1211445 47.8544784,55.6861445 42.0034784,54.6601445 C39.8614784,54.2841445 37.9604784,53.7731445 37.3854784,51.6761445" id="Fill-1" fill="#EDEEF0" fill-rule="nonzero"></path>
                        <path d="M22.0336717,68.238888 C29.2686717,66.184888 37.4366717,62.925888 43.8236717,66.897888 C45.3446717,67.844888 46.6346717,69.155888 48.2446717,69.943888 C52.5616717,72.058888 69.1434387,70.5561714 67.6732995,71.6436727 C56.3634662,80.009859 80.6197325,79.077078 31.9109751,75.0524754 C25.7736935,74.5453772 20.2368508,68.7490427 22.0336717,68.238888 Z" id="Stroke-152" fill="#EDEEF0" fill-rule="nonzero" transform="translate(44.7276, 71.5321) rotate(-5) translate(-44.7276, -71.5321)"></path>
                        <path d="M35.4632784,45.3906445 C35.4632784,36.2436445 47.1892784,33.1246445 51.5742784,38.9586445 C62.8472784,53.9566445 35.4632784,62.0806445 35.4632784,45.3906445 Z" id="Stroke-4" stroke="#B4BDC5" stroke-width="1.5" stroke-linecap="round" stroke-linejoin="round"></path>
                        <path d="M39.2031784,45.3906445 C39.2031784,42.2976445 41.7101784,39.7906445 44.8031784,39.7906445" id="Stroke-5" stroke="#EDEEF0" stroke-width="1.5" stroke-linecap="round" stroke-linejoin="round"></path>
                        <path d="M37.3854784,51.6761445 C28.3284784,52.3311445 10.9654784,53.6651445 17.0424784,58.3191445 C23.7984784,63.4931445 48.7594784,62.7011445 59.0354784,61.8981445 C64.2964784,61.4871445 69.6574784,60.7091445 74.3204784,58.2401445 C74.9684784,57.8971445 75.6814784,57.3911445 75.6834841,56.6581445 C75.6864784,55.6781445 74.4894784,55.2221445 73.5274784,55.0371445 C67.6864784,53.9101445 61.8274784,52.8711445 55.9544784,51.9201445 C55.4464784,51.8381445 54.9394784,51.7571445 54.4314784,51.6761445" id="Stroke-6" stroke="#B4BDC5" stroke-width="1.5" stroke-linecap="round" stroke-linejoin="round"></path>
                        <path d="M62.9795784,53.1010445 C71.3355784,43.9380445 77.7975784,29.5890445 77.7508332,17.1460445 C77.7385784,13.9890445 75.0175784,11.5090445 71.8695784,11.7380445 C70.3235784,11.8510445 68.8505784,11.9090445 67.8625784,11.3190445 C65.2835784,9.77904455 64.7635784,4.40804455 62.2575784,3.41804455 C59.4745784,2.31804455 55.4515784,5.94304455 52.7955784,5.42004455 C49.8745784,4.84504455 47.5005784,0.0160445473 44.7825784,0 C41.8075784,-0.0169554527 39.3585784,4.83704455 36.6895784,5.31104455 C33.7205784,5.83704455 29.7865784,2.16404455 27.2845784,3.05304455 C24.3005784,4.11204455 23.5445784,9.54204455 21.3665784,10.7130445 C16.8425784,13.1440445 11.8105784,10.4530445 10.7385784,14.5810445 C9.17657843,28.4720445 14.1095784,38.3260445 23.5285784,48.6550445" id="Stroke-7" stroke="#B4BDC5" stroke-width="1.5" stroke-linecap="round" stroke-linejoin="round"></path>
                        <path d="M19.9455784,18.1012445 C24.2365784,23.8802445 28.7775784,29.4732445 33.5515784,34.8592445" id="Stroke-8" stroke="#EDEEF0" stroke-width="1.5" stroke-linecap="round" stroke-linejoin="round"></path>
                        <path d="M35.5633784,12.4749445 C37.7163784,17.9339445 39.6983784,23.4599445 41.5033784,29.0439445" id="Stroke-9" stroke="#EDEEF0" stroke-width="1.5" stroke-linecap="round" stroke-linejoin="round"></path>
                        <path d="M57.4697784,10.9352445 C54.2727784,16.9562445 52.8277784,23.8322445 49.2317784,29.6242445" id="Stroke-10" stroke="#EDEEF0" stroke-width="1.5" stroke-linecap="round" stroke-linejoin="round"></path>
                        <path d="M69.5887784,18.0404445 C64.7197784,23.2954445 61.8307784,30.1774445 56.7647784,35.2424445" id="Stroke-11" stroke="#EDEEF0" stroke-width="1.5" stroke-linecap="round" stroke-linejoin="round"></path>
                        <path d="M34.2075784,58.2554445 C41.2445784,54.7124445 49.8685784,54.4904445 57.0785784,57.6664445" id="Stroke-12" stroke="#B4BDC5" stroke-width="1.5" stroke-linecap="round" stroke-linejoin="round"></path>
                        <path d="M17.2190784,61.2465445 C17.2480784,61.2695445 17.6350784,77.2915445 44.1020784,77.5905445 C70.1610784,77.8845445 75.3050784,57.5145445 75.3340784,57.4915445" id="Stroke-3" stroke="#B4BDC5" stroke-width="1.5" stroke-linecap="round" stroke-linejoin="round"></path>
                        <path d="M0.473033791,79.3175264 C7.48301729,74.6433983 15.024116,77.8226275 21.8330047,75.2293255 C28.8614555,72.5525698 36.7143332,68.5940831 43.4232114,71.9943047 C45.02096,72.8051372 46.4203123,73.9987176 48.0928645,74.6433983 C52.5777714,76.3740987 57.5874846,73.7655471 62.3692711,74.2656901 C65.4217047,74.5848676 68.2204559,76.1579263 71.2555915,76.6121252 C74.9354751,77.1614927 78.6301088,76.0321868 82.3222819,75.5746517 C86.0153639,75.1160332 90.24719,75.5488522 92.6359059,78.4015172" id="Stroke-152" stroke="#B4BDC5" stroke-width="1.5" fill="#FFFFFF" stroke-linecap="round" stroke-linejoin="round"></path>
                    </g>
                    <g id="Group-12" transform="translate(171.1055, 109.4883)">
                        <path d="M24.7255,18.0537743 C24.6045,20.9357743 25.1065,23.8027743 25.6065,26.6427743 C25.7495,27.4577743 25.9175,28.3207743 26.4825,28.9237743 C27.3055,29.8017743 28.6635,29.8337743 29.8655,29.7987743 C33.5975,29.6927743 37.3275,29.5407743 41.0565,29.3427743 C41.4665,29.3207743 41.8945,29.2937743 42.2495,29.0867743 C43.0165,28.6397743 43.1235,27.5937743 43.1305,26.7057743 C43.1655,22.2537743 42.8955,17.7987743 42.3235,13.3827743 C42.2095,12.5047743 42.0565,11.5677743 41.4515,10.9217743 C40.8455,10.2767743 39.6265,10.1447743 39.1485,10.8907743 C38.9045,11.2717743 38.9175,11.7567743 38.9395,12.2087743 C39.0955,15.4847743 39.2525,18.7607743 39.4085,22.0367743 C39.4375,22.6547743 39.4625,23.2977743 39.2115,23.8627743 C38.6435,25.1407743 36.9925,25.4507743 35.5945,25.5057743 C34.0265,25.5667743 32.4535,25.5257743 30.8905,25.3827743 C30.6875,25.3637743 30.4705,25.3377743 30.3175,25.2027743 C30.1075,25.0177743 30.0925,24.7017743 30.0935,24.4227743 C30.1025,21.0127743 30.1115,17.6017743 30.1205,14.1907743 C30.1255,12.3557743 29.4315,9.36277433 27.0275,10.8937743 C25.1675,12.0777743 24.8075,16.1037743 24.7255,18.0537743" id="Fill-1" fill="#EDEEF0" fill-rule="nonzero"></path>
                        <path d="M57.2806,56.6042743 C57.2976,56.3042743 57.2966,55.9722743 57.0996,55.7452743 C56.9236,55.5412743 56.6376,55.4792743 56.3726,55.4292743 C49.8826,54.1942743 43.3936,52.9592743 36.9036,51.7252743 C29.2756,50.2742743 21.0216,48.8952743 14.0356,52.2852743 C11.2786,53.6232743 8.6506,56.1382743 8.8066,59.1992743 C8.8166,59.3872743 8.8396,59.5842743 8.9476,59.7372743 C9.1196,59.9822743 9.4496,60.0492743 9.7466,60.0812743 C13.0276,60.4362743 16.2096,59.0602743 19.3826,58.1502743 C25.7436,56.3252743 32.6246,56.3562743 38.9696,58.2382743 C40.7486,58.7652743 42.5056,59.4392743 44.3536,59.6162743 C46.1776,59.7902743 48.0106,59.4732743 49.8436,59.4702743 C51.4556,59.4682743 54.1796,60.7892743 55.5676,60.4922743 C57.2576,60.1302743 57.1926,58.1502743 57.2806,56.6042743" id="Fill-3" fill="#EDEEF0" fill-rule="nonzero"></path>
                        <path d="M57.0915,59.2627743 C57.0915,46.5067743 46.3305,47.2087743 46.3305,38.8297743 L46.3305,34.4847743 C46.3305,31.7677743 44.1285,29.5657743 41.4115,29.5657743 L24.5015,29.5657743 C16.1435,29.5657743 22.7865,39.7067743 16.8015,45.0077743 C13.6025,47.8407743 8.8225,51.4587743 8.8225,59.2627743" id="Stroke-4" stroke="#B4BDC5" stroke-width="1.5" stroke-linecap="round" stroke-linejoin="round"></path>
                        <path d="M0,63.6883743 C6.057,61.1773743 12.149,58.6533743 18.544,57.2073743 C24.94,55.7613743 31.715,55.4333743 37.998,57.3063743 C39.704,57.8153743 41.377,58.4843743 43.142,58.7173743 C44.816,58.9373743 46.516,58.7563743 48.204,58.8173743 C50.592,58.9053743 52.934,59.4773743 55.255,60.0473743 C60.155,61.2503743 65.09,62.4653743 69.664,64.5933743" id="Stroke-5" stroke="#B4BDC5" stroke-width="1.5" stroke-linecap="round" stroke-linejoin="round"></path>
                        <path d="M37.7968,28.7801743 C39.9018,23.0701743 39.5158,16.7851743 39.0998,10.7131743 C38.6748,4.49817433 38.8498,3.11117433 38.1298,1.81917433 C36.8028,-0.558825668 31.2838,-1.94882567 31.0028,6.48017433 C30.7608,13.7461743 30.1538,20.9991743 29.1868,28.2041743" id="Stroke-6" stroke="#B4BDC5" stroke-width="1.5" stroke-linecap="round" stroke-linejoin="round"></path>
                        <path d="M26.4826,28.9242743 C25.2366,24.5992743 22.1846,21.6832743 19.9936,17.7522743 C17.8016,13.8212743 16.2936,9.00727433 18.0626,4.86927433 C18.7716,3.21127433 20.3956,1.62327433 22.1486,2.04327433 C23.3836,2.33927433 24.1766,3.50827433 24.8476,4.58627433 C26.1906,6.74127433 26.9196,7.91227433 28.2616,10.0672743" id="Stroke-7" stroke="#B4BDC5" stroke-width="1.5" stroke-linecap="round" stroke-linejoin="round"></path>
                        <path d="M41.6239,29.0035743 C43.7729,25.4955743 45.6789,21.8395743 47.3249,18.0695743 C48.6239,15.0955743 49.7799,11.9245743 49.5189,8.68957433 C49.3139,6.13757433 46.8599,5.19957433 45.0219,5.41157433 C43.0889,5.63357433 39.7969,10.1555743 39.1859,12.0025743" id="Stroke-8" stroke="#B4BDC5" stroke-width="1.5" stroke-linecap="round" stroke-linejoin="round"></path>
                        <path d="M25.2368,45.4816743 C24.8318,43.5616743 21.8098,43.9336743 21.9118,45.8936743 C21.9118,45.9046743 21.9128,45.9166743 21.9138,45.9286743 C21.9948,47.1136743 23.3948,48.1206743 24.4308,47.5416743 C25.1028,47.1656743 25.3798,46.2936743 25.2468,45.5356743 C25.2438,45.5176743 25.2408,45.4996743 25.2368,45.4816743 Z" id="Stroke-9" stroke="#EDEEF0" stroke-width="1.5" stroke-linecap="round" stroke-linejoin="round"></path>
                        <path d="M27.0761,40.2295743 C26.9141,40.3595743 26.6851,40.4075743 26.5631,40.5745743 C26.4131,40.7795743 26.5131,41.1085743 26.7441,41.2135743 C26.9751,41.3185743 27.2741,41.1965743 27.3861,40.9695743 C27.4981,40.7425743 27.4251,40.4455743 27.2351,40.2785743" id="Stroke-10" stroke="#EDEEF0" stroke-width="1.5" stroke-linecap="round" stroke-linejoin="round"></path>
                        <path d="M39.2562,37.5883743 C39.6832,37.9463743 40.2942,38.0243743 40.8402,37.9113743 C42.5932,37.5463743 44.1092,34.1463743 41.6512,33.8073743 C39.9172,33.5683743 37.5372,36.1473743 39.2562,37.5883743 Z" id="Stroke-11" stroke="#EDEEF0" stroke-width="1.5" stroke-linecap="round" stroke-linejoin="round"></path>
                    </g>
                </g>
            </g>
        </g>
    </g>
</svg>